<?xml version="1.0" encoding="utf-8"?>
<!-- Generator: Adobe Illustrator 24.1.0, SVG Export Plug-In . SVG Version: 6.00 Build 0)  -->

<svg version="1.1" id="Layer_1" xmlns="http://www.w3.org/2000/svg" xmlns:xlink="http://www.w3.org/1999/xlink" x="0px" y="0px"
viewBox="0 0 39 53" style="enable-background:new 0 0 39 53;" xml:space="preserve">
<path fill="none" d="M19.4,26.6c-5.5,0-9.9,4.4-9.9,9.9c0,2.8,1.2,5.4,3.1,7.2l-1,4.6l3.9-2.7c1.2,0.5,2.5,0.8,3.9,0.8
c5.5,0,9.9-4.4,9.9-9.9S24.9,26.6,19.4,26.6z M22.6,33.8c0.8,0,1.5,0.7,1.5,1.5s-0.7,1.5-1.5,1.5s-1.5-0.7-1.5-1.5
S21.8,33.8,22.6,33.8z M16.4,33.8c0.8,0,1.5,0.7,1.5,1.5s-0.7,1.5-1.5,1.5s-1.5-0.7-1.5-1.5C14.8,34.4,15.5,33.8,16.4,33.8z
M19.5,42.9c-2.7,0-4.9-1.8-5.6-4.2H25C24.4,41.1,22.1,42.9,19.5,42.9z"/>
<g>
<path fill="#ffffff" d="M38,30.4h-3.8c0-0.1,0-0.1-0.1-0.2c-0.8-1.9-2-3.6-3.4-5.1c-1.5-1.5-3.2-2.6-5.1-3.4c-1.4-0.6-2.9-1-4.4-1.2
v-3.7c0-0.3-0.3-0.6-0.6-0.6h-3.2c-0.3,0-0.6,0.3-0.6,0.6v4c-1.2,0.2-2.4,0.6-3.6,1c-1.9,0.8-3.6,2-5.1,3.4s-2.6,3.2-3.4,5.1
c0,0.1,0,0.1-0.1,0.2H1c-0.3,0-0.6,0.3-0.6,0.6v7.3C0.4,38.7,0.7,39,1,39h2.6c0.2,1.3,0.6,2.6,1.1,3.8c0.8,1.9,2,3.6,3.4,5.1
c1.5,1.5,3.2,2.6,5.1,3.4c2,0.8,4.1,1.3,6.2,1.3c2.2,0,4.2-0.4,6.2-1.3c1.9-0.8,3.6-2,5.1-3.4c1.5-1.5,2.6-3.2,3.4-5.1
c0.5-1.2,0.9-2.5,1.1-3.8H38c0.3,0,0.6-0.3,0.6-0.6v-7.3C38.6,30.7,38.4,30.4,38,30.4z M19.4,46.4c-1.4,0-2.7-0.3-3.9-0.8l-3.9,2.7
l1-4.6c-1.9-1.8-3.1-4.4-3.1-7.2c0-5.5,4.4-9.9,9.9-9.9s9.9,4.4,9.9,9.9S24.9,46.4,19.4,46.4z"/>
<circle fill="#ffffff" cx="16.4" cy="35.3" r="1.5"/>
<circle fill="#ffffff" cx="22.6" cy="35.3" r="1.5"/>
<path fill="#ffffff" d="M19.5,42.9c2.7,0,4.9-1.8,5.6-4.2H13.9C14.6,41.1,16.8,42.9,19.5,42.9z"/>
<path fill="#ffffff" d="M8.3,9.7c0,0,3.5-4.8,10.2-4.9c7.1-0.1,10.9,5,10.9,5s3.1-3,3.1-3.2c0,0-4.4-6.4-14.1-6.2C9.2,0.6,5,6.7,5,6.7
S8.3,9.8,8.3,9.7z"/>
<path fill="#ffffff" d="M10.7,12.2c0,0,3.1,3.2,3.1,3.1c0,0,1.1-2.5,5-2.5c4.1,0,5,2.4,5,2.4s3.2-2.9,3.2-3.1c0,0-2.1-3.6-8.1-3.7
C13.7,8.4,10.7,12.2,10.7,12.2z"/>
</g>
</svg>